<svg fill="none" height="52" viewBox="0 0 53 52" width="53" xmlns="http://www.w3.org/2000/svg"><circle cx="26.5298" cy="26.2706" fill="#dfceff" r="25.7309" transform="matrix(-1 0 -0 -1 53.0596 52.5412)"/><path d="m39.5686 23.2485c1.4973 1.6858 1.4973 4.419 0 6.1048l-10.0916 11.3619c-1.4974 1.6858-3.925 1.6858-5.4224 0l-10.0916-11.3618c-1.4973-1.6859-1.4973-4.4191 0-6.1049l10.0916-11.3619c1.4974-1.6858 3.925-1.6858 5.4224 0z" fill="#863aff"/><path d="m39.8642 23.5812c1.3341 1.502 1.3341 3.9373 0 5.4394l-10.6827 12.0273c-1.3342 1.5021-3.4972 1.502-4.8313 0l-10.6827-12.0273c-1.3342-1.5021-1.3342-3.9374 0-5.4394 4.8235-5.4307 8.8903-6.5141 13.0964-6.4891 4.2789 0 8.0994.8588 13.1003 6.4891z" fill="#2cf0e0"/><path d="m39.8642 23.5812c1.3341 1.502 1.3341 3.9373 0 5.4394l-10.6827 12.0273c-1.3342 1.5021-3.4972 1.502-4.8313 0l-10.6827-12.0273c-1.3342-1.5021-1.3342-3.9374 0-5.4394 4.8235-5.4307 8.8903 2.2026 13.0964 2.2276 4.2789 0 8.0994-7.8579 13.1003-2.2276z" fill="#00cfba"/></svg>