<svg width="125" height="125" viewBox="0 0 125 125" fill="none" xmlns="http://www.w3.org/2000/svg">
<circle cx="62.4458" cy="62.7534" r="62" transform="rotate(180 62.4458 62.7534)" fill="#DCCFE3"/>
<path d="M93.8642 55.4711C97.4722 59.5332 97.4722 66.1191 93.8642 70.1812L69.548 97.5581C65.94 101.62 60.0904 101.62 56.4824 97.5581L32.1662 70.1812C28.5582 66.1191 28.5582 59.5332 32.1662 55.4711L56.4824 28.0942C60.0904 24.0322 65.94 24.0321 69.5479 28.0942L93.8642 55.4711Z" fill="#0F182C"/>
<path d="M94.5763 56.2735C97.791 59.8928 97.791 65.7608 94.5763 69.38L68.8358 98.3605C65.6211 101.98 60.4092 101.98 57.1945 98.3605L31.454 69.38C28.2393 65.7608 28.2393 59.8928 31.454 56.2735C43.0766 43.188 52.8757 40.5774 63.0106 40.6378C73.3207 40.6378 82.5266 42.7071 94.5763 56.2735Z" fill="#FFBFBF"/>
<path d="M94.5763 56.2735C97.791 59.8928 97.791 65.7608 94.5763 69.38L68.8358 98.3605C65.6211 101.98 60.4092 101.98 57.1945 98.3605L31.454 69.38C28.2393 65.7608 28.2393 59.8928 31.454 56.2735C43.0766 43.188 52.8757 61.5808 63.0106 61.6412C73.3207 61.6412 82.5266 42.7071 94.5763 56.2735Z" fill="#FF6868"/>
</svg>
