<svg width="232" height="72" viewBox="0 0 232 72" fill="none" xmlns="http://www.w3.org/2000/svg">
<path d="M22.842 51.477V0.376999L0.541992 38.077L22.842 51.477Z" fill="#FFE644"/>
<path d="M22.842 0.376999L45.142 38.077L22.842 51.377V0.376999Z" fill="#EC7463"/>
<path d="M0.541992 40.977L22.842 54.277V71.477" fill="#009ECB"/>
<path d="M45.142 40.977L22.842 54.277V71.477" fill="#4D68AE"/>
<path d="M22.842 24.777L0.541992 38.077L22.842 51.377V24.777Z" fill="#57A759"/>
<path d="M22.842 24.777L45.142 38.077L22.842 51.377V24.777Z" fill="#8E5298"/>
<path d="M60.239 26.586C60.239 25.286 60.539 23.986 61.139 22.786C61.739 21.686 62.539 20.786 63.639 20.186C64.739 19.586 66.039 19.286 67.239 19.286C68.439 19.286 69.739 19.586 70.839 20.186C71.839 20.786 72.739 21.686 73.239 22.786C73.839 23.986 74.139 25.286 74.139 26.586V27.686H63.939C63.939 28.486 64.339 29.286 64.939 29.786C65.639 30.386 66.439 30.586 67.339 30.586C68.039 30.586 68.639 30.486 69.239 30.086C69.939 29.686 70.639 29.186 71.139 28.486L73.439 30.886C72.639 31.786 71.739 32.486 70.739 32.986C69.639 33.486 68.539 33.686 67.339 33.686C66.039 33.686 64.739 33.386 63.639 32.786C62.539 32.186 61.739 31.286 61.139 30.286C60.439 29.286 60.239 27.986 60.239 26.586ZM70.339 25.086C70.239 24.386 69.939 23.686 69.339 23.186C68.039 22.186 66.339 22.186 65.039 23.186C64.439 23.686 64.139 24.386 63.939 25.086H70.339Z" fill="#26293B"/>
<path d="M85.639 23.086V28.586C85.639 28.986 85.739 29.286 85.939 29.586C86.239 29.786 86.639 29.886 87.039 29.886H90.139V33.486H86.639C85.339 33.586 84.139 33.186 83.139 32.386C82.239 31.586 81.839 30.486 81.939 29.286V22.986H78.539V19.686H81.939V16.186H85.639V19.686H91.039V22.986L85.639 23.086Z" fill="#26293B"/>
<path d="M96.039 14.586H99.739V20.986H99.839C101.539 19.186 104.339 18.786 106.439 20.086C107.239 20.586 107.839 21.286 108.239 22.086C108.639 23.086 108.939 24.086 108.839 25.086V33.386H105.139V25.586C105.139 24.786 104.939 24.086 104.439 23.486C103.939 22.986 103.239 22.686 102.539 22.686C101.739 22.686 101.039 22.886 100.439 23.486C99.939 24.086 99.639 24.786 99.639 25.586V33.386H95.939L96.039 14.586Z" fill="#26293B"/>
<path d="M112.939 26.586C112.939 25.286 113.239 23.986 113.839 22.786C114.439 21.686 115.239 20.786 116.339 20.186C117.439 19.586 118.739 19.286 119.939 19.286C121.139 19.286 122.439 19.586 123.539 20.186C124.539 20.786 125.439 21.686 125.939 22.786C126.539 23.986 126.839 25.286 126.839 26.586V27.686H116.639C116.639 28.486 117.039 29.286 117.639 29.786C118.339 30.386 119.139 30.586 120.039 30.586C120.739 30.586 121.339 30.486 121.939 30.086C122.639 29.686 123.339 29.186 123.839 28.486L126.139 30.886C125.339 31.786 124.439 32.486 123.439 32.986C122.339 33.486 121.239 33.786 120.039 33.686C118.739 33.686 117.439 33.386 116.339 32.786C115.239 32.186 114.439 31.286 113.839 30.286C113.239 29.286 112.939 27.986 112.939 26.586ZM123.039 25.086C122.939 24.386 122.639 23.686 122.039 23.186C120.739 22.186 119.039 22.186 117.739 23.186C117.139 23.686 116.839 24.386 116.639 25.086H123.039Z" fill="#26293B"/>
<path d="M132.139 19.786H135.639V21.086H135.739C136.739 19.986 138.239 19.386 139.739 19.386C140.839 19.386 141.939 19.686 142.839 20.386C143.739 21.086 144.339 22.086 144.639 23.286L141.139 24.386C140.839 23.286 139.839 22.586 138.639 22.686C137.839 22.586 137.039 22.886 136.539 23.486C136.039 24.086 135.739 24.886 135.839 25.686V33.386H132.139V19.786Z" fill="#26293B"/>
<path d="M148.139 26.586C148.139 25.286 148.439 23.986 149.039 22.786C149.639 21.686 150.439 20.786 151.539 20.186C152.639 19.586 153.939 19.286 155.139 19.286C156.339 19.286 157.639 19.586 158.739 20.186C159.739 20.786 160.639 21.686 161.139 22.786C161.739 23.986 162.039 25.286 162.039 26.586V27.686H151.839C151.839 28.486 152.239 29.286 152.839 29.786C153.539 30.386 154.339 30.586 155.239 30.586C155.939 30.586 156.539 30.486 157.139 30.086C157.839 29.686 158.539 29.186 159.039 28.486L161.339 30.886C160.539 31.786 159.639 32.486 158.639 32.986C157.539 33.486 156.439 33.786 155.239 33.686C153.939 33.686 152.639 33.386 151.539 32.786C150.439 32.186 149.639 31.286 149.039 30.286C148.339 29.286 148.039 27.986 148.139 26.586ZM158.239 25.086C158.139 24.386 157.839 23.686 157.239 23.186C155.939 22.186 154.239 22.186 152.939 23.186C152.339 23.686 152.039 24.386 151.839 25.086H158.239Z" fill="#26293B"/>
<path d="M166.439 28.786V19.786H170.139V27.986C169.939 29.186 170.739 30.286 171.939 30.486C172.139 30.486 172.339 30.486 172.539 30.486C173.239 30.486 173.839 30.286 174.339 29.786C174.839 29.286 175.039 28.586 175.039 27.986V19.786H178.739V33.486H175.239V32.286H175.139C174.739 32.786 174.139 33.186 173.539 33.486C171.539 34.286 169.339 33.986 167.739 32.586C166.839 31.486 166.339 30.186 166.439 28.786Z" fill="#26293B"/>
<path d="M182.839 19.786H186.139V20.986H186.239C186.539 20.586 186.939 20.186 187.339 19.886C187.839 19.586 188.339 19.486 188.839 19.486C189.939 19.486 190.939 20.086 191.439 20.986H191.539C192.139 19.986 193.239 19.386 194.339 19.486C195.239 19.486 196.139 19.886 196.739 20.586C197.339 21.386 197.739 22.386 197.639 23.386V33.486H194.239V23.986C194.239 23.686 194.139 23.286 193.939 23.086C193.739 22.886 193.339 22.786 193.039 22.786C192.739 22.786 192.439 22.886 192.139 23.186C191.939 23.486 191.839 23.786 191.839 24.086V33.486H188.639V23.986C188.639 23.686 188.539 23.386 188.339 23.086C188.139 22.886 187.839 22.786 187.539 22.786C187.239 22.786 186.839 22.886 186.639 23.086C186.439 23.386 186.239 23.686 186.339 23.986V33.386H182.939L182.839 19.786Z" fill="#26293B"/>
<path d="M64.339 51.886H60.739V48.586H64.339V46.586C64.239 45.486 64.739 44.486 65.539 43.686C66.439 42.986 67.639 42.586 68.839 42.686H72.839V45.986H69.339C69.039 45.986 68.739 46.086 68.539 46.286C68.339 46.486 68.239 46.786 68.239 47.086V48.686H73.639V51.986H68.139V60.886H64.339V51.886Z" fill="#26293B"/>
<path d="M77.839 53.886C77.839 52.586 78.139 51.286 78.739 50.086C79.339 48.986 80.139 48.086 81.239 47.486C83.539 46.286 86.239 46.286 88.539 47.486C89.539 48.086 90.439 48.986 91.039 50.086C92.239 52.486 92.239 55.286 91.039 57.586C90.439 58.686 89.639 59.586 88.539 60.186C86.239 61.386 83.539 61.386 81.239 60.186C80.139 59.586 79.339 58.686 78.739 57.586C78.039 56.486 77.739 55.186 77.839 53.886ZM88.039 53.886C88.139 52.886 87.839 51.886 87.139 51.086C86.539 50.386 85.639 49.986 84.739 50.086C83.839 50.086 82.939 50.386 82.339 51.086C81.739 51.886 81.439 52.886 81.439 53.886C81.339 54.886 81.639 55.886 82.339 56.686C83.639 57.986 85.739 58.086 87.139 56.786L87.239 56.686C87.839 55.886 88.139 54.886 88.039 53.886Z" fill="#26293B"/>
<path d="M96.139 56.086V47.086H99.839V55.286C99.639 56.486 100.539 57.586 101.739 57.786C101.939 57.786 102.139 57.786 102.339 57.786C103.039 57.786 103.639 57.586 104.139 57.086C104.639 56.586 104.839 55.886 104.839 55.286V47.086H108.539V60.786H105.039V59.586H104.939C104.539 60.086 103.939 60.486 103.339 60.786C101.039 62.086 98.039 61.186 96.739 58.886C96.239 57.986 96.039 56.986 96.139 56.086Z" fill="#26293B"/>
<path d="M113.639 47.086H117.339V48.386H117.439C117.939 47.886 118.539 47.486 119.239 47.086C119.939 46.786 120.639 46.686 121.439 46.686C122.339 46.686 123.139 46.886 123.939 47.286C124.739 47.786 125.439 48.386 125.839 49.186C126.339 50.186 126.639 51.286 126.539 52.386V60.686H122.839V52.886C122.839 52.086 122.639 51.386 122.139 50.786C121.639 50.186 120.939 49.986 120.239 49.986C119.439 49.986 118.739 50.186 118.139 50.786C117.639 51.386 117.339 52.086 117.339 52.886V60.686H113.639V47.086Z" fill="#26293B"/>
<path d="M130.239 53.886C130.239 52.586 130.539 51.286 131.039 50.186C131.539 49.086 132.339 48.186 133.239 47.586C134.239 46.986 135.339 46.686 136.539 46.686C137.839 46.586 139.139 47.086 140.139 47.886H140.239V41.886H143.939V60.786H140.539V59.586H140.439C139.439 60.686 137.939 61.186 136.439 61.186C135.339 61.186 134.139 60.886 133.239 60.286C132.239 59.686 131.539 58.786 131.039 57.786C130.539 56.486 130.239 55.186 130.239 53.886ZM140.239 54.786V52.986C140.239 52.486 140.139 51.986 139.839 51.586C139.539 51.086 139.139 50.786 138.639 50.486C138.139 50.186 137.539 50.086 137.039 50.086C136.139 50.086 135.339 50.486 134.739 51.086C133.639 52.786 133.639 54.986 134.739 56.686C135.239 57.386 136.139 57.786 136.939 57.786C137.839 57.786 138.639 57.486 139.239 56.886C139.939 56.386 140.239 55.586 140.239 54.786Z" fill="#26293B"/>
<path d="M148.939 57.086C148.839 55.986 149.339 54.886 150.239 54.086C151.539 53.186 153.039 52.686 154.639 52.486C155.439 52.386 156.139 52.186 156.839 51.886C157.139 51.686 157.439 51.386 157.439 50.986C157.439 50.586 157.239 50.186 156.839 49.986C156.339 49.686 155.839 49.586 155.239 49.586C154.539 49.586 153.839 49.786 153.339 50.286C152.839 50.786 152.439 51.386 152.339 52.086L148.939 51.286C149.139 50.386 149.539 49.486 150.139 48.786C150.739 48.086 151.539 47.486 152.439 47.086C153.339 46.686 154.439 46.486 155.439 46.486C156.939 46.386 158.539 46.886 159.639 47.986C160.739 48.986 161.239 50.486 161.239 51.886V60.586H157.939V59.186H157.839C157.439 59.786 156.839 60.286 156.139 60.586C155.339 60.886 154.539 61.086 153.739 61.086C152.939 61.086 152.039 60.886 151.339 60.586C150.639 60.286 150.039 59.786 149.639 59.186C149.139 58.486 148.939 57.786 148.939 57.086ZM157.539 55.686V54.086H157.439C157.239 54.386 156.939 54.586 156.639 54.686C156.039 54.886 155.539 55.086 154.939 55.186C154.239 55.286 153.539 55.486 152.939 55.886C152.639 56.086 152.339 56.486 152.439 56.886C152.439 57.286 152.639 57.586 152.939 57.786C153.339 57.986 153.839 58.086 154.339 58.086C154.839 58.086 155.439 57.986 155.939 57.786C156.439 57.586 156.839 57.286 157.139 56.886C157.339 56.486 157.539 56.086 157.539 55.686Z" fill="#26293B"/>
<path d="M173.539 50.386V55.886C173.539 56.286 173.639 56.586 173.839 56.886C174.139 57.086 174.539 57.186 174.939 57.186H178.039V60.786H174.539C173.239 60.886 172.039 60.486 171.039 59.686C170.139 58.886 169.739 57.786 169.839 56.586V50.286H166.439V46.986H169.839V43.486H173.539V46.986H178.939V50.286H173.539V50.386Z" fill="#26293B"/>
<path d="M196.939 57.386V60.786H183.439V57.386H188.339V50.486H183.739V47.086H192.039V57.386H196.939ZM188.339 41.286H192.139V44.886H188.339V41.286Z" fill="#26293B"/>
<path d="M200.839 53.886C200.839 52.586 201.139 51.286 201.739 50.086C202.339 48.986 203.139 48.086 204.239 47.486C206.539 46.286 209.239 46.286 211.539 47.486C212.539 48.086 213.439 48.986 214.039 50.086C215.239 52.486 215.239 55.286 214.039 57.586C213.439 58.686 212.639 59.586 211.539 60.186C209.239 61.386 206.539 61.386 204.239 60.186C203.239 59.586 202.339 58.686 201.739 57.586C201.139 56.486 200.839 55.186 200.839 53.886ZM211.139 53.886C211.239 52.886 210.939 51.886 210.239 51.086C209.639 50.386 208.739 49.986 207.839 50.086C206.939 50.086 206.039 50.386 205.439 51.086C204.839 51.886 204.539 52.886 204.539 53.886C204.439 54.886 204.739 55.886 205.439 56.686C206.739 57.986 208.839 58.086 210.239 56.786L210.339 56.686C210.839 55.886 211.139 54.886 211.139 53.886Z" fill="#26293B"/>
<path d="M219.039 47.086H222.739V48.386H222.839C223.339 47.886 223.939 47.486 224.639 47.086C225.339 46.786 226.039 46.686 226.839 46.686C227.739 46.686 228.539 46.886 229.339 47.286C230.139 47.786 230.839 48.386 231.239 49.186C231.739 50.186 232.039 51.286 231.939 52.386V60.686H228.239V52.886C228.239 52.086 228.039 51.386 227.539 50.786C227.039 50.186 226.339 49.986 225.639 49.986C224.839 49.986 224.139 50.186 223.539 50.786C223.039 51.386 222.739 52.086 222.739 52.886V60.686H219.039V47.086Z" fill="#26293B"/>
</svg>
